<svg width="32" height="32" viewBox="0 0 32 32" fill="none" xmlns="http://www.w3.org/2000/svg">
<g clip-path="url(#clip0_360_3)">
<rect width="32" height="32" rx="1" fill="white"/>
<path d="M24.551 11.4286H29.398V11.7857C29.398 13.0537 28.3701 14.0816 27.102 14.0816H26.8469C25.5789 14.0816 24.551 13.0537 24.551 11.7857V11.4286Z" fill="url(#paint0_radial_360_3)"/>
<path d="M23.9966 10.7418L24.6174 10.959V11.247L23.7465 10.8853V10.677L23.9966 10.7418ZM24.6174 10.5654L23.9966 10.7866L23.7465 10.8494V10.6402L24.6174 10.2784V10.5654ZM25.6906 10.8913H26.0135C26.0082 10.9909 25.9809 11.0789 25.9318 11.1554C25.8833 11.2311 25.8158 11.2905 25.7295 11.3337C25.6431 11.3762 25.5405 11.3975 25.4216 11.3975C25.3266 11.3975 25.2415 11.3812 25.1665 11.3487C25.0914 11.3161 25.0276 11.2696 24.9751 11.2091C24.9233 11.148 24.8834 11.0746 24.8556 10.9889C24.8283 10.9026 24.8147 10.8053 24.8147 10.6969V10.6083C24.8147 10.4999 24.829 10.4027 24.8575 10.3163C24.8861 10.2299 24.927 10.1562 24.9801 10.0951C25.0333 10.0339 25.097 9.98711 25.1714 9.95456C25.2458 9.92201 25.3289 9.90573 25.4206 9.90573C25.5441 9.90573 25.6484 9.92798 25.7335 9.97249C25.8185 10.017 25.8843 10.0781 25.9308 10.1559C25.9779 10.2336 26.0062 10.3222 26.0155 10.4219H25.6916C25.6889 10.3655 25.6783 10.318 25.6597 10.2794C25.6411 10.2402 25.6126 10.2107 25.574 10.1907C25.5355 10.1708 25.4843 10.1608 25.4206 10.1608C25.3741 10.1608 25.3332 10.1695 25.298 10.1867C25.2634 10.204 25.2345 10.2309 25.2113 10.2674C25.1887 10.304 25.1718 10.3505 25.1605 10.407C25.1492 10.4628 25.1435 10.5292 25.1435 10.6063V10.6969C25.1435 10.7734 25.1485 10.8394 25.1585 10.8953C25.1684 10.9511 25.1844 10.9972 25.2063 11.0338C25.2289 11.0703 25.2578 11.0976 25.293 11.1155C25.3282 11.1334 25.3711 11.1424 25.4216 11.1424C25.4794 11.1424 25.5275 11.1334 25.566 11.1155C25.6046 11.0969 25.6341 11.069 25.6547 11.0318C25.6753 10.9945 25.6873 10.9478 25.6906 10.8913ZM26.5187 9.92666V11.3776H26.1938V9.92666H26.5187ZM27.0897 10.5385V10.7896H26.428V10.5385H27.0897ZM27.1535 9.92666V10.1788H26.428V9.92666H27.1535ZM27.7713 11.3776H27.4524L27.4544 11.1264H27.7713C27.8437 11.1264 27.9048 11.1098 27.9546 11.0766C28.0045 11.0428 28.0423 10.9929 28.0683 10.9271C28.0941 10.8607 28.1071 10.78 28.1071 10.685V10.6182C28.1071 10.5465 28.0998 10.4834 28.0852 10.4289C28.0706 10.3738 28.049 10.3276 28.0204 10.2904C27.9918 10.2532 27.9563 10.2253 27.9138 10.2067C27.8719 10.1881 27.8238 10.1788 27.7693 10.1788H27.4464V9.92666H27.7693C27.8676 9.92666 27.9573 9.94327 28.0384 9.97648C28.1201 10.0097 28.1905 10.0572 28.2496 10.119C28.3094 10.1808 28.3556 10.2538 28.3881 10.3382C28.4207 10.4226 28.4369 10.5166 28.4369 10.6202V10.685C28.4369 10.788 28.4207 10.8819 28.3881 10.967C28.3556 11.0514 28.3094 11.1244 28.2496 11.1862C28.1905 11.2473 28.1204 11.2945 28.0393 11.3277C27.9583 11.3609 27.8689 11.3776 27.7713 11.3776ZM27.6367 9.92666V11.3776H27.3119V9.92666H27.6367ZM29.2341 9.92666L28.7209 11.5021H28.4947L29.0079 9.92666H29.2341ZM29.9895 10.7816L29.3677 10.5654V10.2784L30.2406 10.6402V10.8504L29.9895 10.7816ZM29.3677 10.962L29.9905 10.7398L30.2406 10.677V10.8863L29.3677 11.248V10.962Z" fill="black"/>
<path d="M25.4726 8.09448C25.4889 7.79894 25.7334 7.34694 25.7334 7.34694C25.7334 7.34694 25.6356 7.83371 25.6519 8.09448C25.6682 8.35525 25.7008 8.32048 25.7497 8.51171C25.7986 8.70295 25.766 8.78987 25.7497 8.92895C25.7334 9.06803 25.7171 9.08541 25.6845 9.25926C25.6519 9.43311 25.5704 9.69388 25.5704 9.69388C25.5704 9.69388 25.5867 9.30272 25.5867 9.15495C25.5867 9.00718 25.603 8.80726 25.5541 8.59864C25.5052 8.39002 25.4563 8.39002 25.4726 8.09448Z" fill="black"/>
<path d="M25.4726 8.09448C25.4889 7.79894 25.7334 7.34694 25.7334 7.34694C25.7334 7.34694 25.6356 7.83371 25.6519 8.09448C25.6682 8.35525 25.7008 8.32048 25.7497 8.51171C25.7986 8.70295 25.766 8.78987 25.7497 8.92895C25.7334 9.06803 25.7171 9.08541 25.6845 9.25926C25.6519 9.43311 25.5704 9.69388 25.5704 9.69388C25.5704 9.69388 25.5867 9.30272 25.5867 9.15495C25.5867 9.00718 25.603 8.80726 25.5541 8.59864C25.5052 8.39002 25.4563 8.39002 25.4726 8.09448Z" fill="black"/>
<path d="M25.4726 8.09448C25.4889 7.79894 25.7334 7.34694 25.7334 7.34694C25.7334 7.34694 25.6356 7.83371 25.6519 8.09448C25.6682 8.35525 25.7008 8.32048 25.7497 8.51171C25.7986 8.70295 25.766 8.78987 25.7497 8.92895C25.7334 9.06803 25.7171 9.08541 25.6845 9.25926C25.6519 9.43311 25.5704 9.69388 25.5704 9.69388C25.5704 9.69388 25.5867 9.30272 25.5867 9.15495C25.5867 9.00718 25.603 8.80726 25.5541 8.59864C25.5052 8.39002 25.4563 8.39002 25.4726 8.09448Z" fill="black"/>
<path d="M27.0999 6.97694C27.089 6.57861 26.926 5.96939 26.926 5.96939C26.926 5.96939 26.9912 6.62547 26.9804 6.97694C26.9695 7.32842 26.9478 7.28156 26.9152 7.53931C26.8826 7.79705 26.9043 7.91421 26.9152 8.10166C26.926 8.28912 26.9369 8.31255 26.9586 8.54686C26.9804 8.78118 27.0347 9.13265 27.0347 9.13265C27.0347 9.13265 27.0238 8.60544 27.0238 8.40628C27.0238 8.20711 27.013 7.93764 27.0456 7.65646C27.0782 7.37529 27.1108 7.37529 27.0999 6.97694Z" fill="black"/>
<path d="M27.0999 6.97694C27.089 6.57861 26.926 5.96939 26.926 5.96939C26.926 5.96939 26.9912 6.62547 26.9804 6.97694C26.9695 7.32842 26.9478 7.28156 26.9152 7.53931C26.8826 7.79705 26.9043 7.91421 26.9152 8.10166C26.926 8.28912 26.9369 8.31255 26.9586 8.54686C26.9804 8.78118 27.0347 9.13265 27.0347 9.13265C27.0347 9.13265 27.0238 8.60544 27.0238 8.40628C27.0238 8.20711 27.013 7.93764 27.0456 7.65646C27.0782 7.37529 27.1108 7.37529 27.0999 6.97694Z" fill="black"/>
<path d="M27.0999 6.97694C27.089 6.57861 26.926 5.96939 26.926 5.96939C26.926 5.96939 26.9912 6.62547 26.9804 6.97694C26.9695 7.32842 26.9478 7.28156 26.9152 7.53931C26.8826 7.79705 26.9043 7.91421 26.9152 8.10166C26.926 8.28912 26.9369 8.31255 26.9586 8.54686C26.9804 8.78118 27.0347 9.13265 27.0347 9.13265C27.0347 9.13265 27.0238 8.60544 27.0238 8.40628C27.0238 8.20711 27.013 7.93764 27.0456 7.65646C27.0782 7.37529 27.1108 7.37529 27.0999 6.97694Z" fill="black"/>
<path d="M28.0225 8.3031C28.0334 8.04611 28.1964 7.65306 28.1964 7.65306C28.1964 7.65306 28.1312 8.07634 28.1421 8.3031C28.153 8.52986 28.1747 8.49962 28.2073 8.66591C28.2398 8.8322 28.2182 8.90779 28.2073 9.02872C28.1964 9.14966 28.1856 9.16478 28.1638 9.31595C28.1421 9.46712 28.0878 9.69388 28.0878 9.69388C28.0878 9.69388 28.0986 9.35374 28.0986 9.22525C28.0986 9.09675 28.1095 8.9229 28.0769 8.7415C28.0443 8.56009 28.0117 8.56009 28.0225 8.3031Z" fill="black"/>
<path d="M28.0225 8.3031C28.0334 8.04611 28.1964 7.65306 28.1964 7.65306C28.1964 7.65306 28.1312 8.07634 28.1421 8.3031C28.153 8.52986 28.1747 8.49962 28.2073 8.66591C28.2398 8.8322 28.2182 8.90779 28.2073 9.02872C28.1964 9.14966 28.1856 9.16478 28.1638 9.31595C28.1421 9.46712 28.0878 9.69388 28.0878 9.69388C28.0878 9.69388 28.0986 9.35374 28.0986 9.22525C28.0986 9.09675 28.1095 8.9229 28.0769 8.7415C28.0443 8.56009 28.0117 8.56009 28.0225 8.3031Z" fill="black"/>
<path d="M28.0225 8.3031C28.0334 8.04611 28.1964 7.65306 28.1964 7.65306C28.1964 7.65306 28.1312 8.07634 28.1421 8.3031C28.153 8.52986 28.1747 8.49962 28.2073 8.66591C28.2398 8.8322 28.2182 8.90779 28.2073 9.02872C28.1964 9.14966 28.1856 9.16478 28.1638 9.31595C28.1421 9.46712 28.0878 9.69388 28.0878 9.69388C28.0878 9.69388 28.0986 9.35374 28.0986 9.22525C28.0986 9.09675 28.1095 8.9229 28.0769 8.7415C28.0443 8.56009 28.0117 8.56009 28.0225 8.3031Z" fill="black"/>
<path d="M1.38176 13.1H2.26376L3.71976 16.264H3.73376L5.19676 13.1H6.07876V18H5.16176V15.018H5.14776L4.02076 17.314H3.43276L2.31276 15.018H2.29876V18H1.38176V13.1ZM6.88223 17.286V15.242L7.60323 14.514H9.57023L10.2982 15.242V16.565H7.80623V17.013L8.03023 17.244H9.17123L9.38123 17.027V16.845H10.2912V17.3L9.59823 18H7.58923L6.88223 17.286ZM9.37423 15.921V15.515L9.13623 15.27H8.04423L7.80623 15.515V15.921H9.37423ZM11.3483 17.286V15.291H10.7183V14.514H11.3623V13.38H12.2723V14.514H13.3363V15.298H12.2723V16.985L12.5103 17.216H13.3363V18H12.0693L11.3483 17.286ZM13.8267 17.356V16.558L14.4707 15.914H16.2417V15.473L16.0247 15.256H14.9747L14.7647 15.473V15.669H13.8547V15.27L14.6037 14.514H16.4027L17.1517 15.27V18H16.3187V17.503L15.8007 18H14.4707L13.8267 17.356ZM15.7377 17.286L16.2417 16.803V16.572H14.9257L14.7367 16.761V17.111L14.9117 17.286H15.7377ZM21.0133 13.905H19.5503V13.1H23.4283V13.905H21.9653V18H21.0133V13.905ZM23.1509 17.356V16.558L23.7949 15.914H25.5659V15.473L25.3489 15.256H24.2989L24.0889 15.473V15.669H23.1789V15.27L23.9279 14.514H25.7269L26.4759 15.27V18H25.6429V17.503L25.1249 18H23.7949L23.1509 17.356ZM25.0619 17.286L25.5659 16.803V16.572H24.2499L24.0609 16.761V17.111L24.2359 17.286H25.0619ZM30.6563 14.514V18.798L29.9003 19.547H28.0033L27.3523 18.903V18.427H28.2763V18.637L28.4093 18.777H29.4943L29.7323 18.532V17.545L29.2493 18H27.9333L27.2123 17.272V15.242L27.9333 14.514H29.3053L29.8023 14.99V14.514H30.6563ZM29.7323 15.725L29.2563 15.298H28.4023L28.1363 15.571V16.943L28.4023 17.216H29.1653L29.7323 16.635V15.725Z" fill="url(#paint1_linear_360_3)"/>
</g>
<defs>
<radialGradient id="paint0_radial_360_3" cx="0" cy="0" r="1" gradientUnits="userSpaceOnUse" gradientTransform="translate(27 11) rotate(90.4743) scale(3.08174 5.6301)">
<stop offset="0.516319"/>
<stop offset="1" stop-color="#FB0000"/>
</radialGradient>
<linearGradient id="paint1_linear_360_3" x1="-1" y1="15.5" x2="33" y2="15.5" gradientUnits="userSpaceOnUse">
<stop offset="0.703544"/>
<stop offset="0.810108" stop-color="#D60101"/>
<stop offset="0.916672"/>
</linearGradient>
<clipPath id="clip0_360_3">
<rect width="32" height="32" rx="1" fill="white"/>
</clipPath>
</defs>
</svg>
