<svg width="32" height="32" viewBox="0 0 32 32" fill="none" xmlns="http://www.w3.org/2000/svg">
<rect width="32" height="32" rx="1" fill="white"/>
<path d="M1.38176 13.1H2.26376L3.71976 16.264H3.73376L5.19676 13.1H6.07876V18H5.16176V15.018H5.14776L4.02076 17.314H3.43276L2.31276 15.018H2.29876V18H1.38176V13.1ZM6.88223 17.286V15.242L7.60323 14.514H9.57023L10.2982 15.242V16.565H7.80623V17.013L8.03023 17.244H9.17123L9.38123 17.027V16.845H10.2912V17.3L9.59823 18H7.58923L6.88223 17.286ZM9.37423 15.921V15.515L9.13623 15.27H8.04423L7.80623 15.515V15.921H9.37423ZM11.3483 17.286V15.291H10.7183V14.514H11.3623V13.38H12.2723V14.514H13.3363V15.298H12.2723V16.985L12.5103 17.216H13.3363V18H12.0693L11.3483 17.286ZM13.8267 17.356V16.558L14.4707 15.914H16.2417V15.473L16.0247 15.256H14.9747L14.7647 15.473V15.669H13.8547V15.27L14.6037 14.514H16.4027L17.1517 15.27V18H16.3187V17.503L15.8007 18H14.4707L13.8267 17.356ZM15.7377 17.286L16.2417 16.803V16.572H14.9257L14.7367 16.761V17.111L14.9117 17.286H15.7377ZM21.0133 13.905H19.5503V13.1H23.4283V13.905H21.9653V18H21.0133V13.905ZM23.1509 17.356V16.558L23.7949 15.914H25.5659V15.473L25.3489 15.256H24.2989L24.0889 15.473V15.669H23.1789V15.27L23.9279 14.514H25.7269L26.4759 15.27V18H25.6429V17.503L25.1249 18H23.7949L23.1509 17.356ZM25.0619 17.286L25.5659 16.803V16.572H24.2499L24.0609 16.761V17.111L24.2359 17.286H25.0619ZM30.6563 14.514V18.798L29.9003 19.547H28.0033L27.3523 18.903V18.427H28.2763V18.637L28.4093 18.777H29.4943L29.7323 18.532V17.545L29.2493 18H27.9333L27.2123 17.272V15.242L27.9333 14.514H29.3053L29.8023 14.99V14.514H30.6563ZM29.7323 15.725L29.2563 15.298H28.4023L28.1363 15.571V16.943L28.4023 17.216H29.1653L29.7323 16.635V15.725Z" fill="black"/>
</svg>
